HIERARCHY
ROOT Hips
{
	OFFSET 0.00 0.00 0.00
	CHANNELS 6 Xposition Yposition Zposition Xrotation Yrotation Zrotation
	JOINT Spine
	{
		OFFSET 0.00000 1.92919 2.89379
		CHANNELS 3 Xrotation Yrotation Zrotation
		JOINT Spine1
		{
			OFFSET 0.00000 0.67000 3.79977
			CHANNELS 3 Xrotation Yrotation Zrotation
			JOINT Spine2
			{
				OFFSET 0.00000 0.33628 3.84370
				CHANNELS 3 Xrotation Yrotation Zrotation
				JOINT Spine3
				{
					OFFSET 0.00000 0.00000 3.85838
					CHANNELS 3 Xrotation Yrotation Zrotation
					JOINT Neck
					{
						OFFSET 0.00000 -1.44688 10.12826
						CHANNELS 3 Xrotation Yrotation Zrotation
						JOINT Head
						{
							OFFSET 0.00000 -0.92125 5.22468
							CHANNELS 3 Xrotation Yrotation Zrotation
							End Site
							{
								OFFSET 0.00000 0.00001 6.24576
							}
						}
					}
					JOINT RightShoulder
					{
						OFFSET -1.19724 -1.99539 6.46510
						CHANNELS 3 Xrotation Yrotation Zrotation
						JOINT RightArm
						{
							OFFSET -5.94629 0.00000 0.00000
							CHANNELS 3 Xrotation Yrotation Zrotation
							JOINT RightForeArm
							{
								OFFSET -11.02134 0.00000 0.00000
								CHANNELS 3 Xrotation Yrotation Zrotation
								JOINT RightHand
								{
									OFFSET -10.43440 0.00000 0.00000
									CHANNELS 3 Xrotation Yrotation Zrotation
									JOINT RightHandEnd
									{
										OFFSET -2.82937 0.00000 0.00000
										CHANNELS 3 Xrotation Yrotation Zrotation
										End Site
										{
											OFFSET -2.82937 0.00000 0.00000
										}
									}
									JOINT RightHandThumb1
									{
										OFFSET -1.13175 -1.88625 -0.75450
										CHANNELS 3 Yrotation Xrotation Zrotation
										End Site
										{
											OFFSET -2.73296 -0.73229 0.00000
										}
									}
								}
							}
						}
					}
					JOINT LeftShoulder
					{
						OFFSET 1.19724 -1.99539 6.46510
						CHANNELS 3 Xrotation Yrotation Zrotation
						JOINT LeftArm
						{
							OFFSET 5.94629 0.00000 0.00000
							CHANNELS 3 Xrotation Yrotation Zrotation
							JOINT LeftForeArm
							{
								OFFSET 11.02134 0.00000 0.00000
								CHANNELS 3 Xrotation Yrotation Zrotation
								JOINT LeftHand
								{
									OFFSET 10.43440 0.00000 0.00000
									CHANNELS 3 Xrotation Yrotation Zrotation
									JOINT LeftHandEnd
									{
										OFFSET 2.82937 0.00000 0.00000
										CHANNELS 3 Xrotation Yrotation Zrotation
										End Site
										{
											OFFSET 2.82937 0.00000 0.00000
										}
									}
									JOINT LeftHandThumb1
									{
										OFFSET 1.13175 -1.88625 -0.75450
										CHANNELS 3 Yrotation Xrotation Zrotation
										End Site
										{
											OFFSET 2.73296 -0.73229 0.00000
										}
									}
								}
							}
						}
					}
				}
			}
		}
	}
	JOINT RightUpLeg
	{
		OFFSET -3.55181 0.00000 -1.03761
		CHANNELS 3 Xrotation Yrotation Zrotation
		JOINT RightLeg
		{
			OFFSET 0.00001 0.00000 -15.86106
			CHANNELS 3 Xrotation Yrotation Zrotation
			JOINT RightFoot
			{
				OFFSET 0.00001 0.00000 -16.30493
				CHANNELS 3 Xrotation Yrotation Zrotation
				JOINT RightToeBase
				{
					OFFSET 0.00000 -5.76215 -2.09725
					CHANNELS 3 Xrotation Yrotation Zrotation
					End Site
					{
						OFFSET 0.00000 -2.87338 -0.00000
					}
				}
			}
		}
	}
	JOINT LeftUpLeg
	{
		OFFSET 3.55181 0.00000 -1.03761
		CHANNELS 3 Xrotation Yrotation Zrotation
		JOINT LeftLeg
		{
			OFFSET 0.00001 0.00000 -15.86106
			CHANNELS 3 Xrotation Yrotation Zrotation
			JOINT LeftFoot
			{
				OFFSET 0.00001 0.00000 -16.30493
				CHANNELS 3 Xrotation Yrotation Zrotation
				JOINT LeftToeBase
				{
					OFFSET 0.00000 -5.76215 -2.09725
					CHANNELS 3 Xrotation Yrotation Zrotation
					End Site
					{
						OFFSET 0.00000 -2.87338 -0.00000
					}
				}
			}
		}
	}
}
MOTION
Frames: 15
Frame Time: 0.008342
 -30.3167 -22.2395 35.8308 0.8446 -1.9404 93.6050 -0.7263 1.0052 0.2863 -1.1172 -0.0474 -0.0240 5.7445 0.3749 -0.8129 2.2791 -0.1429 -0.5364 6.1678 -0.4300 2.9612 3.0836 2.3309 5.3625 2.3129 7.1937 -4.4623 -5.4669 -22.2532 9.5009 0.0000 0.0000 1.2170 -20.7778 5.5496 -3.6619 0.0000 -0.0000 0.0000 -0.0000 -0.0000 -0.0000 1.2718 -10.6036 5.5553 8.9233 11.6634 -14.1522 -0.0000 -0.0000 -0.8230 -20.8833 3.6067 8.1402 0.0000 0.0000 0.0000 -0.0000 0.0000 -0.0000 1.8146 -2.7053 -31.4829 5.6329 0.0000 0.0000 -6.8411 1.1865 0.8376 -0.9754 0.0000 -0.0000 1.4808 2.4242 27.1213 9.1416 0.0000 0.0000 -7.2771 -1.6789 -3.8775 -6.2939 0.0000 -0.0000
 -30.3167 -22.2398 35.8306 0.8453 -1.9407 93.6068 -0.7242 1.0044 0.2874 -1.1174 -0.0455 -0.0227 5.7432 0.3760 -0.8137 2.2805 -0.1419 -0.5376 6.1788 -0.4283 2.9612 3.0878 2.3328 5.3579 2.3130 7.1933 -4.4633 -5.4687 -22.2595 9.5061 0.0000 0.0000 1.2152 -20.7904 5.5603 -3.6453 0.0000 -0.0000 0.0000 -0.0000 -0.0000 0.0000 1.2684 -10.6045 5.5567 8.9285 11.6676 -14.1527 -0.0000 -0.0000 -0.8241 -20.8917 3.6079 8.1449 -0.0000 -0.0000 -0.0000 -0.0000 0.0000 0.0000 1.8162 -2.7064 -31.4728 5.6290 0.0000 0.0000 -6.8399 1.1900 0.8260 -0.9801 0.0000 -0.0000 1.4800 2.4237 27.1222 9.1438 0.0000 0.0000 -7.2787 -1.6777 -3.8801 -6.2907 0.0000 -0.0000
 -30.3168 -22.2403 35.8304 0.8445 -1.9404 93.6103 -0.7221 1.0042 0.2879 -1.1187 -0.0453 -0.0222 5.7432 0.3767 -0.8146 2.2824 -0.1398 -0.5396 6.1921 -0.4257 2.9612 3.0942 2.3347 5.3519 2.3128 7.1921 -4.4634 -5.4703 -22.2664 9.5126 0.0000 0.0000 1.2146 -20.8079 5.5692 -3.6273 -0.0000 0.0000 0.0000 0.0000 0.0000 0.0000 1.2641 -10.6057 5.5597 8.9367 11.6725 -14.1535 -0.0000 -0.0000 -0.8256 -20.9021 3.6117 8.1509 0.0000 0.0000 0.0000 0.0000 0.0000 0.0000 1.8183 -2.7105 -31.4586 5.6218 0.0000 0.0000 -6.8363 1.1942 0.8088 -0.9861 0.0000 -0.0000 1.4772 2.4210 27.1202 9.1482 0.0000 0.0000 -7.2810 -1.6771 -3.8813 -6.2875 0.0000 -0.0000
 -30.3170 -22.2409 35.8303 0.8425 -1.9387 93.6145 -0.7213 1.0036 0.2886 -1.1206 -0.0470 -0.0222 5.7441 0.3792 -0.8150 2.2847 -0.1375 -0.5428 6.2078 -0.4224 2.9617 3.1016 2.3372 5.3445 2.3114 7.1892 -4.4619 -5.4719 -22.2726 9.5188 0.0000 0.0000 1.2165 -20.8278 5.5731 -3.6125 -0.0000 -0.0000 0.0000 0.0000 -0.0000 -0.0000 1.2602 -10.6068 5.5642 8.9480 11.6773 -14.1548 -0.0000 -0.0000 -0.8272 -20.9170 3.6189 8.1584 0.0000 0.0000 0.0000 -0.0000 0.0000 0.0000 1.8193 -2.7168 -31.4393 5.6129 0.0000 0.0000 -6.8307 1.1991 0.7862 -0.9930 0.0000 -0.0000 1.4719 2.4163 27.1179 9.1544 0.0000 0.0000 -7.2839 -1.6773 -3.8829 -6.2843 0.0000 -0.0000
 -30.3179 -22.2415 35.8301 0.8396 -1.9268 93.6192 -0.7298 1.0013 0.2897 -1.1244 -0.0469 -0.0226 5.7477 0.3819 -0.8155 2.2876 -0.1356 -0.5459 6.2243 -0.4166 2.9625 3.1104 2.3394 5.3346 2.3097 7.1847 -4.4616 -5.4742 -22.2778 9.5281 0.0000 0.0000 1.2193 -20.8499 5.5744 -3.5985 -0.0000 0.0000 -0.0000 0.0000 -0.0000 0.0000 1.2519 -10.6051 5.5655 8.9636 11.6809 -14.1503 -0.0000 -0.0000 -0.8325 -20.9337 3.6280 8.1695 0.0000 -0.0000 0.0000 0.0000 -0.0000 -0.0000 1.8068 -2.7227 -31.4160 5.6075 0.0000 0.0000 -6.8253 1.2070 0.7597 -1.0009 0.0000 -0.0000 1.4524 2.4108 27.1098 9.1651 0.0000 0.0000 -7.2870 -1.6792 -3.8788 -6.2809 0.0000 -0.0000
 -30.3182 -22.2422 35.8300 0.8371 -1.9235 93.6243 -0.7310 1.0012 0.2907 -1.1254 -0.0508 -0.0228 5.7494 0.3857 -0.8159 2.2908 -0.1324 -0.5513 6.2428 -0.4108 2.9642 3.1218 2.3432 5.3239 2.3072 7.1815 -4.4583 -5.4743 -22.2847 9.5367 0.0000 0.0000 1.2245 -20.8734 5.5711 -3.5874 -0.0000 -0.0000 -0.0000 0.0000 -0.0000 0.0000 1.2512 -10.6057 5.5748 8.9790 11.6856 -14.1546 -0.0000 -0.0000 -0.8340 -20.9525 3.6426 8.1816 -0.0000 -0.0000 -0.0000 0.0000 -0.0000 0.0000 1.8053 -2.7295 -31.3938 5.6001 0.0000 0.0000 -6.8188 1.2135 0.7347 -1.0099 0.0000 -0.0000 1.4447 2.4054 27.1056 9.1724 0.0000 0.0000 -7.2888 -1.6802 -3.8790 -6.2778 0.0000 -0.0000
 -30.3185 -22.2428 35.8299 0.8351 -1.9186 93.6296 -0.7336 1.0001 0.2924 -1.1285 -0.0523 -0.0232 5.7536 0.3890 -0.8172 2.2944 -0.1294 -0.5558 6.2616 -0.4036 2.9653 3.1355 2.3478 5.3120 2.3049 7.1767 -4.4558 -5.4740 -22.2895 9.5469 0.0000 0.0000 1.2310 -20.8984 5.5640 -3.5781 -0.0000 0.0000 0.0000 0.0000 -0.0000 0.0000 1.2497 -10.6062 5.5821 8.9970 11.6916 -14.1561 -0.0000 -0.0000 -0.8373 -20.9736 3.6589 8.1947 0.0000 0.0000 0.0000 -0.0000 0.0000 -0.0000 1.8025 -2.7364 -31.3669 5.5912 0.0000 0.0000 -6.8115 1.2215 0.7056 -1.0195 0.0000 -0.0000 1.4357 2.4012 27.0987 9.1782 0.0000 0.0000 -7.2889 -1.6816 -3.8765 -6.2752 0.0000 -0.0000
 -30.3195 -22.2434 35.8298 0.8320 -1.9033 93.6356 -0.7458 0.9985 0.2940 -1.1346 -0.0530 -0.0233 5.7619 0.3910 -0.8183 2.2981 -0.1266 -0.5607 6.2796 -0.3942 2.9666 3.1503 2.3530 5.2984 2.3020 7.1701 -4.4537 -5.4733 -22.2917 9.5587 0.0000 0.0000 1.2387 -20.9244 5.5561 -3.5709 0.0000 0.0000 -0.0000 0.0000 -0.0000 0.0000 1.2467 -10.6045 5.5875 9.0162 11.6970 -14.1550 -0.0000 -0.0000 -0.8420 -20.9936 3.6755 8.2094 0.0000 0.0000 0.0000 0.0000 -0.0000 0.0000 1.7865 -2.7433 -31.3378 5.5853 0.0000 0.0000 -6.8039 1.2311 0.6743 -1.0287 0.0000 -0.0000 1.4129 2.3957 27.0874 9.1881 0.0000 0.0000 -7.2893 -1.6846 -3.8698 -6.2726 0.0000 -0.0000
 -30.3197 -22.2441 35.8297 0.8283 -1.8989 93.6419 -0.7484 0.9969 0.2954 -1.1361 -0.0569 -0.0240 5.7652 0.3948 -0.8185 2.3023 -0.1240 -0.5650 6.2982 -0.3837 2.9669 3.1673 2.3595 5.2839 2.2992 7.1662 -4.4524 -5.4717 -22.2959 9.5685 0.0000 0.0000 1.2494 -20.9493 5.5484 -3.5660 0.0000 0.0000 -0.0000 0.0000 0.0000 -0.0000 1.2501 -10.6024 5.5950 9.0342 11.7011 -14.1587 -0.0000 -0.0000 -0.8443 -21.0159 3.6979 8.2251 0.0000 0.0000 -0.0000 -0.0000 0.0000 -0.0000 1.7846 -2.7524 -31.3096 5.5764 0.0000 0.0000 -6.7949 1.2375 0.6440 -1.0382 0.0000 -0.0000 1.4039 2.3888 27.0814 9.1957 0.0000 0.0000 -7.2899 -1.6860 -3.8690 -6.2704 0.0000 -0.0000
 -30.3197 -22.2446 35.8297 0.8260 -1.8952 93.6481 -0.7507 0.9968 0.2977 -1.1394 -0.0596 -0.0242 5.7712 0.3964 -0.8201 2.3061 -0.1218 -0.5693 6.3155 -0.3714 2.9677 3.1862 2.3676 5.2691 2.2966 7.1638 -4.4506 -5.4691 -22.3000 9.5789 0.0000 0.0000 1.2592 -20.9736 5.5415 -3.5597 0.0000 -0.0000 -0.0000 0.0000 0.0000 0.0000 1.2556 -10.6015 5.6041 9.0501 11.7089 -14.1641 -0.0000 -0.0000 -0.8460 -21.0365 3.7169 8.2403 -0.0000 -0.0000 -0.0000 0.0000 0.0000 -0.0000 1.7843 -2.7601 -31.2818 5.5668 0.0000 0.0000 -6.7863 1.2440 0.6146 -1.0469 0.0000 -0.0000 1.3977 2.3842 27.0755 9.1996 0.0000 0.0000 -7.2885 -1.6868 -3.8679 -6.2689 0.0000 -0.0000
 -30.3204 -22.2453 35.8296 0.8221 -1.8800 93.6552 -0.7630 0.9953 0.2992 -1.1454 -0.0612 -0.0243 5.7799 0.3963 -0.8205 2.3099 -0.1194 -0.5723 6.3307 -0.3576 2.9664 3.2057 2.3759 5.2542 2.2924 7.1590 -4.4510 -5.4671 -22.3007 9.5878 0.0000 0.0000 1.2702 -20.9956 5.5391 -3.5536 0.0000 0.0000 -0.0000 -0.0000 -0.0000 0.0000 1.2593 -10.5968 5.6081 9.0645 11.7140 -14.1663 -0.0000 -0.0000 -0.8484 -21.0543 3.7349 8.2562 0.0000 -0.0000 -0.0000 0.0000 0.0000 -0.0000 1.7692 -2.7683 -31.2517 5.5607 0.0000 0.0000 -6.7781 1.2513 0.5820 -1.0547 0.0000 -0.0000 1.3753 2.3773 27.0647 9.2097 0.0000 0.0000 -7.2889 -1.6887 -3.8630 -6.2677 0.0000 -0.0000
 -30.3202 -22.2460 35.8296 0.8194 -1.8771 93.6631 -0.7640 0.9952 0.3010 -1.1470 -0.0641 -0.0249 5.7833 0.3968 -0.8217 2.3136 -0.1181 -0.5745 6.3460 -0.3428 2.9645 3.2261 2.3855 5.2402 2.2888 7.1579 -4.4513 -5.4644 -22.3037 9.5946 0.0000 0.0000 1.2813 -21.0140 5.5411 -3.5466 0.0000 -0.0000 -0.0000 0.0000 -0.0000 -0.0000 1.2683 -10.5933 5.6148 9.0747 11.7209 -14.1734 -0.0000 -0.0000 -0.8481 -21.0701 3.7514 8.2712 -0.0000 -0.0000 -0.0000 -0.0000 0.0000 -0.0000 1.7699 -2.7765 -31.2260 5.5518 0.0000 0.0000 -6.7702 1.2554 0.5528 -1.0613 0.0000 -0.0000 1.3698 2.3714 27.0592 9.2147 0.0000 0.0000 -7.2886 -1.6882 -3.8643 -6.2670 0.0000 -0.0000
 -30.3205 -22.2468 35.8295 0.8157 -1.8653 93.6716 -0.7724 0.9943 0.3027 -1.1517 -0.0655 -0.0251 5.7895 0.3952 -0.8225 2.3168 -0.1168 -0.5759 6.3592 -0.3267 2.9605 3.2469 2.3956 5.2269 2.2836 7.1561 -4.4531 -5.4630 -22.3053 9.5995 0.0000 0.0000 1.2918 -21.0286 5.5492 -3.5385 0.0000 0.0000 0.0000 -0.0000 -0.0000 -0.0000 1.2743 -10.5881 5.6172 9.0821 11.7282 -14.1775 -0.0000 -0.0000 -0.8485 -21.0820 3.7625 8.2853 0.0000 0.0000 -0.0000 0.0000 -0.0000 0.0000 1.7592 -2.7845 -31.1986 5.5458 0.0000 0.0000 -6.7636 1.2602 0.5206 -1.0673 0.0000 -0.0000 1.3518 2.3640 27.0498 9.2246 0.0000 0.0000 -7.2902 -1.6882 -3.8628 -6.2671 0.0000 -0.0000
 -30.3202 -22.2476 35.8294 0.8134 -1.8617 93.6809 -0.7725 0.9946 0.3038 -1.1528 -0.0669 -0.0250 5.7907 0.3935 -0.8245 2.3200 -0.1164 -0.5761 6.3722 -0.3097 2.9561 3.2680 2.4055 5.2155 2.2790 7.1569 -4.4544 -5.4617 -22.3084 9.6022 0.0000 0.0000 1.3005 -21.0415 5.5614 -3.5259 0.0000 -0.0000 -0.0000 0.0000 0.0000 -0.0000 1.2831 -10.5843 5.6217 9.0852 11.7379 -14.1850 -0.0000 -0.0000 -0.8467 -21.0917 3.7690 8.2974 0.0000 0.0000 0.0000 -0.0000 0.0000 -0.0000 1.7585 -2.7916 -31.1757 5.5395 0.0000 0.0000 -6.7588 1.2629 0.4913 -1.0717 0.0000 -0.0000 1.3449 2.3578 27.0433 9.2315 0.0000 0.0000 -7.2918 -1.6864 -3.8656 -6.2673 0.0000 -0.0000
 -30.3201 -22.2485 35.8292 0.8107 -1.8524 93.6912 -0.7769 0.9949 0.3050 -1.1554 -0.0676 -0.0251 5.7926 0.3907 -0.8266 2.3225 -0.1161 -0.5757 6.3840 -0.2923 2.9499 3.2876 2.4148 5.2056 2.2730 7.1572 -4.4564 -5.4616 -22.3107 9.6028 0.0000 0.0000 1.3077 -21.0501 5.5790 -3.5128 0.0000 -0.0000 0.0000 -0.0000 -0.0000 0.0000 1.2895 -10.5789 5.6238 9.0844 11.7472 -14.1908 -0.0000 -0.0000 -0.8447 -21.0975 3.7703 8.3079 -0.0000 -0.0000 0.0000 -0.0000 -0.0000 0.0000 1.7507 -2.7985 -31.1516 5.5350 0.0000 0.0000 -6.7555 1.2660 0.4587 -1.0755 0.0000 -0.0000 1.3300 2.3504 27.0339 9.2420 0.0000 0.0000 -7.2951 -1.6845 -3.8671 -6.2681 0.0000 -0.0000
